<svg width="543" height="213" viewBox="0 0 543 213" fill="none" xmlns="http://www.w3.org/2000/svg">
<path d="M0 0H30L174 179.4V21C174 15.6 172.3 11.3 168.9 8.1C165.7 4.7 161.4 3 156 3V0H195V3C189.6 3 185.2 4.7 181.8 8.1C178.6 11.3 177 15.6 177 21V210H174L30 30.6V189C30 194.4 31.6 198.8 34.8 202.2C38.2 205.4 42.6 207 48 207V210H9V207C14.4 207 18.7 205.4 21.9 202.2C25.3 198.8 27 194.4 27 189V26.7L13.8 10.5C12.2 8.3 10.2 6.5 7.8 5.10001C5.4 3.7 2.8 3 0 3V0Z" fill="#1E1E1E"/>
<path d="M285.199 57C295.999 57 306.099 59.1 315.499 63.3C324.899 67.3 333.099 72.8 340.099 79.8C347.299 86.8 352.899 95.1 356.899 104.7C361.099 114.1 363.199 124.2 363.199 135C363.199 145.8 361.099 155.9 356.899 165.3C352.899 174.7 347.299 183 340.099 190.2C333.099 197.2 324.899 202.8 315.499 207C306.099 211 295.999 213 285.199 213C274.399 213 264.299 211 254.899 207C245.499 202.8 237.199 197.2 229.999 190.2C222.999 183 217.399 174.7 213.199 165.3C209.199 155.9 207.199 145.8 207.199 135C207.199 124.2 209.199 114.1 213.199 104.7C217.399 95.1 222.999 86.8 229.999 79.8C237.199 72.8 245.499 67.3 254.899 63.3C264.299 59.1 274.399 57 285.199 57ZM223.699 135C223.699 144.8 225.299 154.1 228.499 162.9C231.699 171.7 236.099 179.4 241.699 186C247.299 192.4 253.799 197.5 261.199 201.3C268.799 205.1 276.799 207 285.199 207C293.599 207 301.499 205.1 308.899 201.3C316.499 197.5 323.099 192.4 328.699 186C334.299 179.4 338.699 171.7 341.899 162.9C345.099 154.1 346.699 144.8 346.699 135C346.699 125 345.099 115.7 341.899 107.1C338.699 98.3 334.299 90.7 328.699 84.3C323.099 77.7 316.499 72.5 308.899 68.7C301.499 64.9 293.599 63 285.199 63C276.799 63 268.799 64.9 261.199 68.7C253.799 72.5 247.299 77.7 241.699 84.3C236.099 90.7 231.699 98.3 228.499 107.1C225.299 115.7 223.699 125 223.699 135Z" fill="#1E1E1E"/>
<path d="M381.07 210V207C385.67 207 389.27 205.7 391.87 203.1C394.67 200.3 396.07 196.6 396.07 192V85.5C396.07 79.1 393.57 75.9 388.57 75.9C386.17 75.9 383.67 76.6 381.07 78V75L408.07 60H411.07V192C411.07 196.6 412.37 200.3 414.97 203.1C417.77 205.7 421.47 207 426.07 207V210H381.07ZM403.57 0C407.57 0 411.07 1.5 414.07 4.5C417.07 7.5 418.57 11 418.57 15C418.57 19 417.07 22.5 414.07 25.5C411.07 28.5 407.57 30 403.57 30C399.57 30 396.07 28.5 393.07 25.5C390.07 22.5 388.57 19 388.57 15C388.57 11 390.07 7.5 393.07 4.5C396.07 1.5 399.57 0 403.57 0Z" fill="#1E1E1E"/>
<path d="M475.453 60H478.453V100.5C480.853 95.1 483.953 90 487.753 85.2C491.553 80.2 495.853 75.9 500.653 72.3C505.653 68.5 511.053 65.5 516.853 63.3C522.853 61.1 529.153 60 535.753 60L542.053 86.1H539.053C537.253 80.9 534.353 76.7 530.353 73.5C526.553 70.3 522.453 68.7 518.053 68.7C516.053 68.7 513.853 69.2 511.453 70.2C503.053 74 495.953 79.8 490.153 87.6C484.553 95.2 480.653 104 478.453 114V192C478.453 196.6 479.753 200.3 482.353 203.1C485.153 205.7 488.853 207 493.453 207V210H448.453V207C453.053 207 456.653 205.7 459.253 203.1C462.053 200.3 463.453 196.6 463.453 192V85.5C463.453 79.1 460.953 75.9 455.953 75.9C453.553 75.9 451.053 76.6 448.453 78V75L475.453 60Z" fill="#1E1E1E"/>
</svg>
